<?xml version="1.0" encoding="utf-8"?>
<!-- Generator: Adobe Illustrator 26.2.1, SVG Export Plug-In . SVG Version: 6.00 Build 0)  -->
<svg version="1.1" id="Layer_1" xmlns="http://www.w3.org/2000/svg" xmlns:xlink="http://www.w3.org/1999/xlink" x="0px" y="0px"
	 viewBox="0 0 421.4 56" style="enable-background:new 0 0 421.4 56;" xml:space="preserve">
<style type="text/css">
	.st0{fill:#FFFFFF;}
</style>
<desc>Created with Sketch.</desc>
<g>
	<path class="st0" d="M166.2,37.5c0,0.6,0,0.9-0.3,1.5c-0.3,1.8-0.9,3.6-1.8,5.4c-1.2,3-3.3,5.4-6.3,6.8c-4.2,2.1-9.2,2.4-13.7,1.2
		c-0.6,0-1.5-0.3-2.1-0.6c-1.5-0.6-3-1.5-3.9-3s-1.8-3-2.1-4.8c0-0.3,0-0.9,0-1.2c0-1.5,0-29.8,0-29.8c0-5.1,3-9.5,8-11
		c0.3,0,0.3,0,0.6-0.3l0,0l0,0V0.6h-25.3v0.9l0,0l0,0c0,0,0.3,0,0.6,0.3c4.8,1.8,8,6.3,8,11v30.4c0,5.1-3,9.5-8,11
		c-0.3,0-0.3,0-0.6,0.3l0,0l0,0v0.9h47.9V37.5H166.2L166.2,37.5z"/>
	<path class="st0" d="M96.3,3.3C92.7,1.5,88.8,0.6,85,0.6c-3,0-6.3,0.6-9.2,1.8c-3,1.2-6,2.7-8.3,4.8c-3.6,2.7-6.3,6-8,9.5
		c-1.8,3.6-2.7,7.7-2.7,11.9c0,3.3,0.6,6.5,1.8,9.5s2.7,5.7,4.8,8c2.7,3,6,5.4,9.5,7.1c7.4,3.3,16.1,3.3,23.5,0
		c3.6-1.8,7.1-4.2,9.8-7.1c2.1-2.4,3.9-5.4,5.1-8.3c1.2-3,1.8-6.3,1.8-9.5c0-6.5-2.4-12.2-6.8-17.3C103.4,7.4,100.1,5,96.3,3.3z
		 M96.9,46.8c-1.8,2.1-3.6,3.9-5.4,4.8C89.7,52.5,87.3,53,85,53c-2.4,0-4.8-0.6-6.5-1.5c-1.8-0.9-3.6-2.7-5.4-4.8
		C69.2,42,67.4,36,67.4,28.9c0-3.9,0.6-7.7,1.5-11.3s2.7-6.5,4.5-8.9c1.5-2.1,3.3-3.6,5.1-4.5c1.8-0.9,4.2-1.5,6.5-1.5
		c2.7,0,4.8,0.3,6.5,1.5c1.8,0.9,3.6,2.4,5.1,4.5c1.8,2.4,3.3,5.4,4.5,8.9c1.2,3.6,1.5,7.4,1.5,11C102.5,36,100.4,41.9,96.9,46.8z"
		/>
	<path class="st0" d="M234.4,54.4c-6-1.5-6.8-3.9-10.7-12.5c0,0-15.5-37.5-17-41.1h-3.9C201.3,4.1,187.6,41,187.6,41
		c-3.6,8.6-6,12.5-10.7,13.7c0,0-0.3,0-0.6,0v0.9h18.5v-0.9c-8.6-0.9-5.4-9.5-5.4-9.5l5.7-15.5c0.6,0,1.5-0.3,2.4,0
		c2.4,0,4.8,0.6,7.7,1.8c2.7,1.2,5.1,3,6.3,4.5l0.3,0.3l3.6,9.8c0,0,1.5,3.6-0.3,6.3c-0.9,1.2-2.4,2.1-5.1,2.4c-0.3,0-0.6,0-1.2,0
		v0.9H235v-0.9h-0.3C234.7,54.4,234.7,54.4,234.4,54.4z M196.3,25.3l2.7-7.5l1.8-4.8c0-0.3,0.3-0.3,0.6-0.6c0.3,0,0.9,0,1.2,0.6
		l5.4,12.8l1.8,4.8C203.4,26.5,198.1,25.6,196.3,25.3z"/>
	<path class="st0" d="M47.2,37.5c0,0.6,0,0.9-0.3,1.5c-0.3,1.8-0.9,3.6-1.8,5.4c-1.2,3-3.3,5.4-6.3,6.8c-4.2,2.1-9.2,2.4-13.7,1.2
		c-0.6,0-1.5-0.3-2.1-0.6c-1.5-0.6-3-1.5-3.9-3s-1.8-3-2.1-4.8c0-0.3,0-0.9,0-1.2c0-1.5,0-29.8,0-29.8c0-5.1,3-9.5,7.7-11
		c0.3,0,0.3,0,0.6-0.3l0,0l0,0V0.6h-25v0.9l0,0l0,0c0,0,0.3,0,0.6,0.3c4.8,1.8,8,6.3,8,11v30.4c0,5.1-3,9.5-7.7,11
		c-0.3,0-0.3,0-0.6,0.3l0,0l0,0v0.9h47.9V37.5H47.2L47.2,37.5z"/>
	<path class="st0" d="M266.5,0.6v0.9c8.6,0.9,5.4,9.5,5.4,9.5l-11.6,32.1c0,0.3-0.6,0.6-1.2,0.6c-0.3,0-0.3-0.3-0.6-0.6l-12.2-33
		c0,0-1.5-3.6,0.3-6.3c0.9-1.2,2.4-2.1,5.1-2.4c0.3,0,0.6,0,1.2,0V0.5h-26.2v0.9h0.3h0.3c6,1.5,6.8,3.9,10.7,12.5
		c0,0,15.5,37.5,17,41.1h3.9c1.5-3.3,15.5-40.2,15.5-40.2c3.6-8.6,5.7-12.5,10.7-13.7c0,0,0.3,0,0.6,0V0.5h-9.8h-9.4V0.6z"/>
	<path class="st0" d="M375.8,37.8c0,0.3,0,0.9-0.3,1.2c-0.3,1.8-0.9,3.6-1.8,5.4c-1.2,3-3.3,5.4-6.3,6.8c-4.2,2.1-9.2,2.4-13.7,1.2
		c-0.6,0-1.5-0.3-2.1-0.6c-1.5-0.6-3-1.5-3.9-2.7c-0.9-1.5-1.8-3-2.1-4.8c0-0.3,0-0.3,0-0.6V28.3v-2.1c0-0.3,0.3-0.9,0.9-0.9
		c0,0,4.8-0.3,7.1,1.2c1.8,1.2,3.9,2.7,4.5,5.4l0.3,0.9c0,0.6,0.3,1.2,0.3,2.1c0,0.6,0,0.9,0,0.9h1.5V14h-1.5c0,0,0,0.3,0,0.9
		c0,0.6,0,1.5-0.3,2.1v0.3c-0.6,2.7-2.7,4.2-4.5,5.1c-2.7,1.2-7.4,0.9-7.4,0.9c-0.3,0-0.9-0.3-0.9-0.9v-3v-15c0-0.3,0.3-0.9,0.9-0.9
		h13.7c2.7,0,5.1,1.8,6.5,3.3c1.5,1.8,2.7,3.9,3.6,6.3l0.3,0.9h0.9V0.9h-42.9v0.9l0,0l0,0c0,0,0.3,0,0.6,0.3c4.8,1.8,7.7,6,8,11
		v30.1c0,5.1-3.3,9.5-8,11c-0.3,0-0.3,0-0.6,0.3l0,0l0,0v0.9h47.9V37.5L375.8,37.8L375.8,37.8z"/>
	<path class="st0" d="M293,2.1L293,2.1L293,2.1c0,0,0.3,0,0.6,0.3c4.8,1.8,8,6,8,11v29.8c0,5.1-3.3,9.5-8,11c-0.3,0-0.3,0-0.6,0.3
		l0,0l0,0v0.9h25.6v-0.9l0,0l0,0c0,0-0.3,0-0.6-0.3c-4.8-1.8-8-6-8-11V13.1c0-5.1,3.3-9.5,8-11c0.3,0,0.3,0,0.6-0.3l0,0l0,0V0.9H293
		V2.1z"/>
</g>
<g>
	<path class="st0" d="M405.7,16.9c-0.5-0.6-1-1-1.3-1.4c0.6-0.1,1.8-0.4,2.7-1.4c0.2-0.3,0.4-0.5,0.4-0.6c0.4-0.7,0.6-1.4,0.6-2.3
		c0-1-0.2-1.8-0.7-2.5c-0.4-0.7-1-1.3-1.9-1.5c-0.7-0.3-2-0.4-3.7-0.4h-6.7v15.8h3.2v-6.6h0.7c0.7,0,1.3,0.1,1.6,0.1
		c0.4,0.1,0.7,0.4,1,0.7c0.3,0.3,0.9,1.1,1.7,2.3l2.3,3.4h3.8c-0.9-1.3-1.5-2.5-1.9-3.1C406.7,18.1,406.3,17.5,405.7,16.9z
		 M403.7,13.2c-0.4,0.1-1.3,0.2-2.8,0.2h-2.4v-4h2.5c1.3,0,2.1,0,2.3,0.1c0.5,0.1,0.9,0.3,1.2,0.6c0.3,0.3,0.4,0.7,0.4,1.3
		c0,0.4-0.1,0.9-0.3,1.2C404.4,12.9,404.1,13.1,403.7,13.2z"/>
	<path class="st0" d="M414.2,9.1c-0.4-0.8-0.8-1.6-1.3-2.4c-0.5-0.7-1.1-1.4-1.7-2.1c-0.7-0.7-1.3-1.2-2.1-1.7s-1.6-1-2.4-1.3
		c-1.7-0.7-3.6-1.1-5.5-1.1c-1.9,0-3.7,0.4-5.5,1.1c-0.8,0.4-1.6,0.8-2.4,1.3c-0.7,0.5-1.4,1.1-2.1,1.7c-0.7,0.7-1.2,1.3-1.7,2.1
		c-0.5,0.7-1,1.6-1.3,2.4c-0.7,1.7-1.1,3.6-1.1,5.5s0.4,3.7,1.1,5.5c0.4,0.8,0.8,1.6,1.3,2.4c0.5,0.7,1.1,1.4,1.7,2.1
		c0.6,0.7,1.3,1.2,2.1,1.7s1.6,1,2.4,1.3c1.7,0.7,3.6,1.1,5.5,1.1c1.9,0,3.7-0.4,5.5-1.1c0.8-0.4,1.6-0.8,2.4-1.3
		c0.7-0.5,1.4-1.1,2.1-1.7c0.7-0.6,1.2-1.3,1.7-2.1c0.5-0.7,1-1.6,1.3-2.4c0.7-1.7,1.1-3.6,1.1-5.5S415,10.8,414.2,9.1z M401.3,27.6
		c-7.2,0-13-5.8-13-13s5.8-12.9,13-12.9s13,5.8,13,13S408.3,27.6,401.3,27.6z"/>
</g>
</svg>
